<?xml version="1.0" encoding="UTF-8"?>
<svg id="Layer_1" data-name="Layer 1" xmlns="http://www.w3.org/2000/svg" viewBox="0 0 512 417.94">
  <defs>
    <style>
      .cls-1 {
        fill: #010101;
      }
    </style>
  </defs>
  <g id="Generative_Object" data-name="Generative Object">
    <path class="cls-1" d="M285.98,351.32c1.22.27,1.83,1.01,2.59,2.11,11.85,17.2,23.19,34.5,34.15,52.28l3.02,5.9c.74,1.45.71,3.69-.54,5.03-1.74,1.87-5.5,1.77-7.06-.51l-10.14-14.84-26.11-40.85c-.97-.59-1.88-.82-2.95-1.18-19.15-4.6-35.28-17.63-41.84-36.6-10.18,2.21-19.91,4.02-30.01,4.63l-20.16.15c-36.03-3.1-67.64-20.32-72.83-58.96-23.66,6.75-49.15,3.9-71.28-5.52-7.28-3.1-13.73-7.21-19.84-12.25-11.06-9.13-18.64-21.32-21.77-35.23-3.83-21,1.32-41.78,15.9-57.1-3.31-18.42.91-36.17,13.23-50.02,8.28-8.97,18.97-14.86,30.7-17.44,3.83-20.08,18.66-35.69,37.94-41.84,10.04-3.21,20.58-4.14,31.47-2.94,7.48-11.53,17.81-20.41,30.09-26.2,14.26-7.14,29.83-10.05,45.97-8.88,8.77.64,16.97,2.04,24.88,5.37,9.55-7.66,20.31-12.91,32.17-15.05,11.01-1.98,21.91-1.88,32.61.68,12.69,3.04,26.29,10.08,33.96,21.23,17.96-6.39,37.03-3.84,51.62,7.76,6.96,5.54,11.74,12.83,14.03,21.42l11.95.55c26.33,5.08,44.98,28.18,47.1,55.07,12.36,3.85,22.85,12.02,30.21,22.92,8.09,11.98,11.14,26.57,9.12,41.14,14.79,15.14,20.58,36.85,16.6,57.57-1.44,7.5-3.95,14.33-8.07,20.82,2.23,8.67,2.19,17.62-.31,26.23-4.87,16.37-16.98,27.16-33.26,32.78-2.57,19.52-12.26,37.1-27.58,49.72-16.78,13.83-37.45,21.57-59.25,22.63-10.84.53-21.11-.69-31.67-2.82-.2,1,.06,1.71.33,2.62,2.99,10.28,6.99,19.95,10.96,29.83.6,1.48.11,3.44-.63,4.31-.98,1.16-2.86,1.57-4.45.71-1.48-.8-2.63-2.41-3.43-4.05-4.6-9.47-8.53-19.1-11.96-29.15l-2.33-8.38c-6.13-2.62-11.62-5.41-16.96-9.03-19.41-13.14-29.22-34.11-31.18-57.03l-17.85,4.39-26.02,6.93c6.24,17.47,21.68,27.31,38.85,31.1ZM450.36,145.04c11.89,10.34,14.5,25.3,9.37,40.08,18.73,12.67,24.42,31.62,17.81,53.12-3.95,12.83-12.68,23.68-24.84,29.6-5.84,2.84-15.98,5.51-16.23-.12-.08-1.65,1.41-2.88,3.15-3.34,11.3-2.99,20.46-10.23,26.19-20.44,4.27-7.61,6.39-16.17,5.85-25.01-.76-12.42-9.12-22.79-20.06-28.22-2.04-1.01-2.53-3.06-1.63-5.09,4.51-10.15,4.57-22.47-2.82-30.86-6.5-7.38-15.07-10.64-24.96-11.45-13.08,30.58-47.35,49.51-79.96,42.69-6.89-1.44-13.07-3.85-19.22-7.05-8.55-4.46-17.91-6.55-27.79-5.83s-20.05,3.38-29.24,7.56c-5.94,2.69-11.2,6.35-14.91,11.81-1.01,1.48-2.73,3-4.59,1.66-10.64-7.71-25.35-8.49-38.71-7-19.18,2.14-35.71,6.91-51.46,17.61-8.11,5.51-14.88,12.25-20.57,20.25-7.93,11.14-12.4,24-11.92,37.9.38,10.91,3.92,21.23,10.38,29.82,12.45,16.55,35.13,23.09,55.24,24.18,17.79.97,40.3-3.19,57.52-7.65l37.44-9.68c50.63-13.09,91.69-12.48,142.41-.93,15.48,3.53,31.6,4.42,45.92-1.84s22.62-18.93,22.88-33.87c.08-4.76-.59-9.06-2.54-13.31,14.81-23.25,11.71-54.71-8.8-73.63l1.21-6.83c1.25-15.82-4.79-31.05-16.51-41.62-6.15-5.54-12.91-9.35-20.73-11.39-1.82-.47-2.37-2.16-2.47-3.88-.57-9.93-3.85-19.09-8.93-27.6-2.71-4.55-6.04-8.19-9.99-11.71-6.74-6-14.67-9.33-23.61-10.19-13.77-1.32-28.36,6.14-34.17,18.54-2.38,5.07-3.08,10.6-1.31,15.78l3.78,7.94c6.16,15.09,1.49,32.42-10.86,42.96-8.6,7.34-19.54,10.56-30.6,8.05-15.85-3.6-22.33-20.28-16.73-34.55,4.23-10.79,13.08-15.54,14.02-28.04.79-10.54-5.67-19.43-15.83-21.89-7.04-1.71-14.36-.35-20.53,3.94-8.18,5.68-12.56,15.04-12.97,24.95l-.19,4.62c-.07,1.7-1.31,3.13-2.71,3.44-1.03.23-3.06.04-3.57-1.47-4.86-14.39.15-30.07,12.38-39.07,4.3-3.16,8.57-5.46,13.79-6.57l5.31-1.13c.16-13.27,6.37-23.79,17.19-31.86-3.34-4.21-7.36-7.14-11.79-9.88-8.77-5.42-18.63-7.68-29.05-8.07-13.51-.51-26.06,3.21-37.11,10.87-12.45,8.63-22.6,22.09-25.17,36.79-.23,1.32-.95,2.3-1.85,2.67-1.13.46-2.24.38-3.42-.18-9.31-4.42-20.22-4.25-29.2,1.02-9.64,5.67-15.73,15.3-17.56,26.2-.83,4.92-1.11,9.82.36,14.62.37,1.21.78,2.87-.34,3.77-.67.54-2.04,1.21-3.2.65-9.07-4.41-20.99-2.43-25.57,6.74-7.14,14.31,1.86,33.86,16.28,40.83l6.11,2.96c2.04.99,2.8,2.86,2.24,4.83s-2.58,2.88-4.89,2.44c-10.09-1.95-18.53-7.81-24.67-16.18s-8.94-19.93-7.18-30.7c2.42-14.77,15.4-23.47,30.32-23.3.29-11.12,3.47-21.33,9.74-29.94,10.25-14.08,27.24-20.28,44.29-15.85,2.2-8.65,7.03-16.35,12.68-23.29-6.9-2.61-13.93-3.55-21.44-3.7-21.08-.42-41.38,7.07-55.45,22.88-3.28,3.69-5.69,7.7-7.79,12.21-.45.97-1.87,1.41-2.86,1.09-28.47-9.14-59.7,9.2-63.17,38.58-.19,1.61-1.49,2.68-3.04,2.93-9.18,1.52-17.78,4.73-24.93,10.86-9.01,7.72-14.62,18.37-16.11,30.08-.82,6.49-.18,12.83.94,19.28.16.91-.04,1.91-.78,2.61-22.51,21.22-23.12,56.57-.51,78.19,14.18,13.55,34.41,19.49,53.65,21.02,11.82.94,23.38-.4,34.56-4.06,1.09-18.04,9.36-34.16,21.3-47.47,20.36-21.28,44.23-29.98,73.63-32.26l-6.96-7.21c-8.14-9.19-13.87-19.91-16.18-32.03-3.61-18.99,2.78-39.7,19.98-48.65,1.39-.72,3.7-1.3,4.92-.5,2.27,1.47,1.59,4.54-.18,5.95l-3.98,3.18c-19.84,18.11-13.54,51.82,5.47,68.73,9.55,8.49,21.91,12.14,34.58,10.02s23.42-10.54,28.2-22.5c1.41-3.52,2.24-6.88,2.87-10.53.78-4.5,1.53-12.27,4.27-13.07.88-.26,2.15-.25,3.03.4,1.58,1.17,2.12,3.61,2.04,5.74-.38,9.66-3.01,18.58-7.19,27.44,5.83-1.58,11.23-2.02,16.9-2.34,9.41-.54,18.16,1.86,26.56,6.01l8.69,4.29c7.78,3.41,15.91,5.44,24.42,5.14,21.86-.76,43.25-12.96,53.53-32.6,9.43-17.99,5.9-38.94-12.3-48.25-1.62-.83-3.34-2.2-3.01-4.13.37-2.17,2.64-3.46,4.87-2.78,13.93,4.29,23.18,16.8,24.27,31.22.33,4.41.42,8.59-.34,13,10.01,1.11,19.06,4.31,26.59,10.86ZM363.52,127.16c2.51-7.93,1.16-15.83-2.92-22.91-6.88-11.92-3.99-26.4,5.32-36.4,5.53-5.94,12.24-10.24,20.1-12.36-1.43-6.08-4.65-11.09-9.24-15.31-7.63-7-17.38-10.25-27.8-10.23-9.74.02-18.82,3.09-25.95,9.58-6.26,5.7-10.29,13.22-10.31,21.91,15.12,2.79,25.95,16.34,24.8,31.67-.43,5.74-1.99,10.95-5.22,15.72l-7.02,10.41c-3.55,5.26-4.87,11.62-3.2,17.76,1.34,4.91,5.06,8.32,10,9.57,13.72,3.45,27.17-5.89,31.45-19.41ZM343.52,338.75c-10.07,1.01-19.71,3-29.6,6,3.8,5.76,8.66,10.19,14.43,13.8,17.95,11.21,39.09,15.07,60.68,12.71,17.85-1.95,34.63-8.91,48.22-20.89,11.36-10.02,18.55-23.48,21.41-38.33-8.74.42-16.82-.64-25.13-2.39l-8.4-1.77c-18.15-4.17-36.28-6.77-54.94-7.71-12.41-.63-24.22.23-36.66,1.09-11.16,1.12-21.94,2.77-33,5.35.15,10.96,3.4,21.57,8.96,30.5,12.71-3.72,24.89-6.28,37.79-7.04,12.81-.62,24.98.5,37.5,2.8l20.4,3.75,10.3,1.79c1.56.27,2.81,1.28,3,2.62.2,1.46-.57,2.64-1.9,3.29-1.69.82-3.47.69-5.27.41l-15.29-2.33c-18.47-2.82-32.66-5.64-52.5-3.65Z"/>
    <path class="cls-1" d="M104.64,200.23c-17.59,1.65-33.96-4.88-44.02-19.85-2.54,1.42-4.71,3.08-6.95,5.09-7.56,6.8-9.37,17.6-4.56,26.68,8.42,15.88,28.19,18.18,44.13,11.66.82-.34,2.1-.24,2.75.14.96.56,1.44,1.65,1.46,2.54.02,1.09-.39,2.26-1.39,3.07-16.73,13.54-50.09,5.86-58.21-18.26-3.57-10.62-1.1-21.69,6.26-30.02,3.14-3.56,6.76-6.19,10.99-8.91-4.42-11.87-3.82-23.97,3.43-34.54,6.82-9.94,18.44-14.95,30.68-13.43-3.39-19.11,9.65-35.27,27.7-39.34,1.95-.23,3.41.56,4.05,2.12.59,1.43-.11,3.22-1.72,3.93-5.49,2.41-10.22,5.73-14.23,10.35-5.7,6.57-8.06,15.52-5.54,24.03,1.92,6.5,10.55,8.98,13.62,21.79,1.38,5.77,1.77,11.81.86,17.6-.22,1.38-1.33,2.32-2.27,2.55-1.28.3-2.87-.15-3.55-1.49-3.2-6.27-1.15-14.89-7.71-24.27-3.56-5.08-8.86-8.09-15.09-8.3-14.19-.49-24.26,11.76-22.96,25.9.7,7.59,4.19,14.23,9.29,19.9,12.29,13.68,28.8,13.03,46.11,10.06,1.9-.33,3.76.99,4.15,2.3.58,1.92-.19,3.55-1.94,4.49-4.73,2.55-9.97,3.72-15.35,4.23Z"/>
    <path class="cls-1" d="M220.53,274.99c-5.46-3.72-12.54-11.09-8.32-14.52,1.64-1.33,3.84-1,5.29.7,5.19,6.07,12.07,9.91,20.01,11.18,9.9,1.58,19.67.26,29.4-2.27l20.86-5.44c14.83-3.87,29.5-6.37,44.93-6.97,11.64-.46,22.68.44,34.16,1.91,7.74,1,15.07,1.63,22.8,1.09,9.78-.67,19.32-2.84,27.79-7.52,10.92-6.03,18.32-15.95,21.19-27.88.47-1.95,1.98-3.33,3.83-3.1,1.71.21,2.93,2.02,2.72,4.21-1.14,11.88-7.43,22.57-16.8,30.18-14.71,11.95-33.72,15.14-52.78,13.42l-22.1-2c-29.08-2.63-56.28,3.32-83.67,10.81-8.95,2.45-17.75,4.19-26.93,3.5-8.06-.61-15.63-2.69-22.4-7.31Z"/>
    <path class="cls-1" d="M195.54,284.57c1.69.42,1.72,2.53,1.23,3.75-.4,1.01-1.54,2.2-3.08,2.31-6.19.46-12.56-.88-18.03-3.85-16.54-8.97-18.1-30.18-8.22-45.55,5.96-9.27,14.9-15.68,25.26-19.27,7.29-2.52,14.73-3.16,22.61-2.82s14.66,2.2,21.62,5.01c7.64,3.09,15.36,4.87,23.53,4.43,16.85-.91,31.25-10.82,37.79-26.49.62-1.5,2.81-1.39,3.94-.91,1.19.5,2.39,2.22,1.79,3.93-6.16,17.37-21.65,30.33-39.9,32.82-10.22,1.39-19.63-.08-28.85-4.1-6.17-2.69-12.4-4.71-19.1-5.38-9.85-.98-19.33.77-27.84,5.38-6.68,3.62-11.57,8.89-14.85,15.63-6.42,13.17-.63,29.41,12.97,32.82l9.13,2.29Z"/>
    <path class="cls-1" d="M306.4,232.79l9.12-2.1c9.09-2.09,17.08-6.59,23.85-13.14,1.11-1.08,2.98-.63,4.22-.09,17.04,7.39,34.27,10.37,51.9,2.85,13.39-5.71,20.89-16.25,24.51-29.97.56-2.13,1.56-3.43,3.83-3.27,7.02.49-1.06,19.73-8.35,28.19-3.26,3.78-6.59,6.97-10.72,9.79-12.13,8.26-26.94,11.19-41.59,8.75-7.06-1.18-13.24-3.74-19.4-6.6-10.23,8.47-23.43,12.5-36.43,11.48-1.59-.53-2.74-1.25-2.94-2.63-.17-1.23.59-2.91,2.02-3.24Z"/>
    <path class="cls-1" d="M243.97,138.39c.75,2.02.54,4.59-1.21,5.78-2.02,1.37-4.58.19-5.66-1.83-6.78-12.67-9.83-27.08-8.71-41.68,1-13.14,5.42-25.15,12.94-35.74,5.45-7.67,11.99-14.23,20.18-18.97,4.76-2.76,12.41-6.18,13.98-2.09.62,1.62-.07,3.16-1.6,4.06-3.69,2.16-7.22,4.21-10.53,7.02-9.04,7.68-15.93,17.19-20.67,28.04-8.18,18.72-5.58,36.85,1.28,55.43Z"/>
  </g>
</svg>