<svg xmlns="http://www.w3.org/2000/svg" xmlns:inkscape="http://www.inkscape.org/namespaces/inkscape" xmlns:sodipodi="http://sodipodi.sourceforge.net/DTD/sodipodi-0.0.dtd" xmlns:xlink="http://www.w3.org/1999/xlink" width="512.0" height="512.0" viewBox="0 0 512.0 512.0" id="svg8591"><path d="M 285.98 351.32 c 1.22 0.27 1.83 1.01 2.59 2.11 c 11.85 17.2 23.19 34.5 34.15 52.28 l 3.02 5.9 c 0.74 1.45 0.71 3.69 -0.54 5.03 c -1.74 1.87 -5.5 1.77 -7.06 -0.51 l -10.14 -14.84 l -26.11 -40.85 c -0.97 -0.59 -1.88 -0.82 -2.95 -1.18 c -19.15 -4.6 -35.28 -17.63 -41.84 -36.6 c -10.18 2.21 -19.91 4.02 -30.01 4.63 l -20.16 0.15 c -36.03 -3.1 -67.64 -20.32 -72.83 -58.96 c -23.66 6.75 -49.15 3.9 -71.28 -5.52 c -7.28 -3.1 -13.73 -7.21 -19.84 -12.25 c -11.06 -9.13 -18.64 -21.32 -21.77 -35.23 c -3.83 -21 1.32 -41.78 15.9 -57.1 c -3.31 -18.42 0.91 -36.17 13.23 -50.02 c 8.28 -8.97 18.97 -14.86 30.7 -17.44 c 3.83 -20.08 18.66 -35.69 37.94 -41.84 c 10.04 -3.21 20.58 -4.14 31.47 -2.94 c 7.48 -11.53 17.81 -20.41 30.09 -26.2 c 14.26 -7.14 29.83 -10.05 45.97 -8.88 c 8.77 0.64 16.97 2.04 24.88 5.37 c 9.55 -7.66 20.31 -12.91 32.17 -15.05 c 11.01 -1.98 21.91 -1.88 32.61 0.68 c 12.69 3.04 26.29 10.08 33.96 21.23 c 17.96 -6.39 37.03 -3.84 51.62 7.76 c 6.96 5.54 11.74 12.83 14.03 21.42 l 11.95 0.55 c 26.33 5.08 44.98 28.18 47.1 55.07 c 12.36 3.85 22.85 12.02 30.21 22.92 c 8.09 11.98 11.14 26.57 9.12 41.14 c 14.79 15.14 20.58 36.85 16.6 57.57 c -1.44 7.5 -3.95 14.33 -8.07 20.82 c 2.23 8.67 2.19 17.62 -0.31 26.23 c -4.87 16.37 -16.98 27.16 -33.26 32.78 c -2.57 19.52 -12.26 37.1 -27.58 49.72 c -16.78 13.83 -37.45 21.57 -59.25 22.63 c -10.84 0.53 -21.11 -0.69 -31.67 -2.82 c -0.2 1 0.06 1.71 0.33 2.62 c 2.99 10.28 6.99 19.95 10.96 29.83 c 0.6 1.48 0.11 3.44 -0.63 4.31 c -0.98 1.16 -2.86 1.57 -4.45 0.71 c -1.48 -0.8 -2.63 -2.41 -3.43 -4.05 c -4.6 -9.47 -8.53 -19.1 -11.96 -29.15 l -2.33 -8.38 c -6.13 -2.62 -11.62 -5.41 -16.96 -9.03 c -19.41 -13.14 -29.22 -34.11 -31.18 -57.03 l -17.85 4.39 l -26.02 6.93 c 6.24 17.47 21.68 27.31 38.85 31.1 Z" id="path3248" inkscape:label="brainFill" style="fill:#ffffff" transform="matrix(0.507998 0 0 0.507998 43.9527 15.8285)"/><g inkscape:label="binaryLayer" id="g8967" transform="matrix(0.507998 0 0 0.507998 43.9527 15.8285)"><g inkscape:label="binaryText" id="g80" clip-path="url(#clipPath6186)"><text x="18.0" y="52.0" id="text1795" style="fill:#c8ccd5;font-family:Menlo;font-size:18px">010010010110100101101001011010010110100101101001</text><text x="18.0" y="75.0" id="text9334" style="fill:#c8ccd5;font-family:Menlo;font-size:18px">101001011010010110010110100101101001011010010110</text><text x="18.0" y="98.0" id="text7473" style="fill:#c8ccd5;font-family:Menlo;font-size:18px">011010010110100101101001011010010110100101101001</text><text x="18.0" y="121.0" id="text6612" style="fill:#c8ccd5;font-family:Menlo;font-size:18px">100101101001011010010110100101101001011010010110</text><text x="18.0" y="144.0" id="text327" style="fill:#c8ccd5;font-family:Menlo;font-size:18px">010110100101101001011010010110100101101001011010</text><text x="18.0" y="167.0" id="text612" style="fill:#c8ccd5;font-family:Menlo;font-size:18px">110100101101001011010010110100101101001011010010</text><text x="18.0" y="190.0" id="text1656" style="fill:#c8ccd5;font-family:Menlo;font-size:18px">001011010010110100101101001011010010110100101101</text><text x="18.0" y="213.0" id="text2475" style="fill:#c8ccd5;font-family:Menlo;font-size:18px">101001011010010110100101101001011010010110100101</text><text x="18.0" y="236.0" id="text5299" style="fill:#c8ccd5;font-family:Menlo;font-size:18px">011010010110100101101001011010010110100101101001</text><text x="18.0" y="259.0" id="text9168" style="fill:#c8ccd5;font-family:Menlo;font-size:18px">100101101001011010010110100101101001011010010110</text><text x="18.0" y="282.0" id="text586" style="fill:#c8ccd5;font-family:Menlo;font-size:18px">010110100101101001011010010110100101101001011010</text><text x="18.0" y="305.0" id="text8678" style="fill:#c8ccd5;font-family:Menlo;font-size:18px">110100101101001011010010110100101101001011010010</text><text x="18.0" y="328.0" id="text759" style="fill:#c8ccd5;font-family:Menlo;font-size:18px">001011010010110100101101001011010010110100101101</text><text x="18.0" y="351.0" id="text1881" style="fill:#c8ccd5;font-family:Menlo;font-size:18px">101101001011010010110100101101001011010010110100</text></g></g><g inkscape:label="doc" id="g4077" transform="matrix(0.92 0 0 0.92 20.48 40)"><path d="M124,150 L330,150 L402,222 L402,486 Q402,500 388,500 L124,500 Q110,500 110,486 L110,164 Q110,150 124,150 Z" id="path6741" inkscape:label="docBody" style="fill:url(#linearGradient9289);stroke:#e4e7ec;stroke-width:1.0;filter:url(#filter5834)"/><path d="M330,150 L402,222 L330,222 Z" id="path1559" inkscape:label="docCurl" style="fill:url(#linearGradient6029);stroke:#dfe3e9;stroke-width:1.0;filter:url(#filter945)"/><g inkscape:label="mdtext" id="g4440" transform="translate(0, 14)"><text x="144.0" y="252.0" id="text7000" inkscape:label="mdH1" style="fill:#2f9e5a;font-family:Menlo;font-size:21px;font-weight:bold"># cribsheet</text><text x="144.0" y="288.0" id="text9224" inkscape:label="mdH2" style="fill:#2f9e5a;font-family:Menlo;font-size:14.5px;font-weight:bold">## notes that think with you</text><text x="150.0" y="326.0" id="text2891" inkscape:label="mdL1" style="fill:#b1342f;font-family:Menlo;font-size:13px">1. save</text><text x="150.0" y="347.0" id="text4620" inkscape:label="mdL2" style="fill:#b1342f;font-family:Menlo;font-size:13px">2. organize</text><text x="150.0" y="368.0" id="text9142" inkscape:label="mdL3" style="fill:#b1342f;font-family:Menlo;font-size:13px">3. recall</text><text x="150.0" y="389.0" id="text3991" inkscape:label="mdL4" style="fill:#b1342f;font-family:Menlo;font-size:13px">4. semantic search</text><text x="144.0" y="433.0" id="text3511" inkscape:label="mdEm" style="fill:#9b30b0;font-family:Menlo;font-size:12px;font-style:italic" transform="translate(0, -6)">**persistent memory for your ai**</text></g><g inkscape:label="mdmark" id="g3230" transform="matrix(0.26 0 0 0.26 228 459)"><rect x="5.0" y="5.0" width="198.0" height="118.0" rx="14.0" id="rect1480" inkscape:label="mdMarkBorder" style="fill:none;stroke:#aab0ba;stroke-width:15.0"/><path d="M 30 98 V 30 h 20 l 20 25 l 20 -25 h 20 v 68 H 90 V 59 L 70 84 L 50 59 v 39 z m 125 0 l -30 -33 h 20 V 30 h 20 v 35 h 20 z" id="path5440" inkscape:label="mdMarkGlyph" style="fill:#aab0ba"/></g></g><defs><linearGradient x1="0.0" y1="0.0" x2="1.0" y2="1.0" id="linearGradient6889" inkscape:label="pageGrad"><stop offset="0.0" style="stop-color:#3ad0c8;stop-opacity:1.0"/><stop offset="0.55" style="stop-color:#4a8df0;stop-opacity:1.0"/><stop offset="1.0" style="stop-color:#7b5cf0;stop-opacity:1.0"/></linearGradient><linearGradient x1="0.0" y1="0.0" x2="1.0" y2="1.0" id="linearGradient7792" inkscape:label="foldGrad"><stop offset="0.0" style="stop-color:#2a9e98;stop-opacity:1.0"/><stop offset="1.0" style="stop-color:#1c6fb0;stop-opacity:1.0"/></linearGradient><linearGradient x1="0.0" y1="0.0" x2="0.6" y2="1.0" id="linearGradient7544" inkscape:label="pageGrey"><stop offset="0.0" style="stop-color:#ffffff;stop-opacity:1.0"/><stop offset="0.5" style="stop-color:#f4f5f7;stop-opacity:1.0"/><stop offset="1.0" style="stop-color:#e4e7ec;stop-opacity:1.0"/></linearGradient><linearGradient x1="0.0" y1="0.0" x2="1.0" y2="1.0" id="linearGradient8690" inkscape:label="foldGrey"><stop offset="0.0" style="stop-color:#cfd3da;stop-opacity:1.0"/><stop offset="1.0" style="stop-color:#aeb4be;stop-opacity:1.0"/></linearGradient><filter x="-50%" y="-50%" width="200%" height="200%" id="filter4483"><feGaussianBlur in="SourceAlpha" stdDeviation="6.0" result="blur"/><feOffset in="blur" dx="3.0" dy="5.0" result="off"/><feFlood flood-color="#1a1f2e" flood-opacity="0.22" result="color"/><feComposite in="color" in2="off" operator="in" result="shadow"/><feMerge><feMergeNode in="shadow"/><feMergeNode in="SourceGraphic"/></feMerge></filter><linearGradient x1="0.0" y1="0.0" x2="0.5" y2="1.0" id="linearGradient7087" inkscape:label="badgeGrad"><stop offset="0.0" style="stop-color:#7b66f5;stop-opacity:1.0"/><stop offset="1.0" style="stop-color:#3f23b0;stop-opacity:1.0"/></linearGradient><linearGradient x1="0.15" y1="0.0" x2="0.5" y2="1.0" id="linearGradient9639" inkscape:label="tearGrad"><stop offset="0.0" style="stop-color:#73d2ff;stop-opacity:1.0"/><stop offset="0.5" style="stop-color:#36a3f5;stop-opacity:1.0"/><stop offset="1.0" style="stop-color:#1666d6;stop-opacity:1.0"/></linearGradient><filter x="-50%" y="-50%" width="200%" height="200%" id="filter1656"><feGaussianBlur in="SourceAlpha" stdDeviation="6.0" result="blur"/><feOffset in="blur" dx="3.0" dy="5.0" result="off"/><feFlood flood-color="#1a1f2e" flood-opacity="0.22" result="color"/><feComposite in="color" in2="off" operator="in" result="shadow"/><feMerge><feMergeNode in="shadow"/><feMergeNode in="SourceGraphic"/></feMerge></filter><linearGradient x1="0.0" y1="0.0" x2="0.0" y2="1.0" id="linearGradient5351" inkscape:label="pageSmooth"><stop offset="0.0" style="stop-color:#ffffff;stop-opacity:1.0"/><stop offset="1.0" style="stop-color:#e6e9ef;stop-opacity:1.0"/></linearGradient><linearGradient x1="1.0" y1="0.0" x2="0.0" y2="1.0" id="linearGradient1099" inkscape:label="foldLight"><stop offset="0.0" style="stop-color:#fcfcfd;stop-opacity:1.0"/><stop offset="1.0" style="stop-color:#ccd1d9;stop-opacity:1.0"/></linearGradient><filter x="-50%" y="-50%" width="200%" height="200%" id="filter7680"><feGaussianBlur in="SourceAlpha" stdDeviation="5.0" result="blur"/><feOffset in="blur" dx="-4.0" dy="5.0" result="off"/><feFlood flood-color="#10141f" flood-opacity="0.33" result="color"/><feComposite in="color" in2="off" operator="in" result="shadow"/><feMerge><feMergeNode in="shadow"/><feMergeNode in="SourceGraphic"/></feMerge></filter><filter x="-50%" y="-50%" width="200%" height="200%" id="filter2802"><feGaussianBlur in="SourceAlpha" stdDeviation="16.0" result="blur"/><feOffset in="blur" dx="0.0" dy="9.0" result="off"/><feFlood flood-color="#1a2030" flood-opacity="0.18" result="color"/><feComposite in="color" in2="off" operator="in" result="shadow"/><feMerge><feMergeNode in="shadow"/><feMergeNode in="SourceGraphic"/></feMerge></filter><filter x="-50%" y="-50%" width="200%" height="200%" id="filter6051"><feGaussianBlur in="SourceAlpha" stdDeviation="7.0" result="blur"/><feOffset in="blur" dx="-5.0" dy="6.0" result="off"/><feFlood flood-color="#10141f" flood-opacity="0.28" result="color"/><feComposite in="color" in2="off" operator="in" result="shadow"/><feMerge><feMergeNode in="shadow"/><feMergeNode in="SourceGraphic"/></feMerge></filter><linearGradient x1="0.0" y1="0.0" x2="0.35" y2="1.0" id="linearGradient9289" inkscape:label="docGrad"><stop offset="0.0" style="stop-color:#ffffff;stop-opacity:1.0"/><stop offset="0.55" style="stop-color:#eef1f5;stop-opacity:1.0"/><stop offset="1.0" style="stop-color:#d9dee7;stop-opacity:1.0"/></linearGradient><filter x="-50%" y="-50%" width="200%" height="200%" id="filter5834"><feGaussianBlur in="SourceAlpha" stdDeviation="24.0" result="blur"/><feOffset in="blur" dx="0.0" dy="13.0" result="off"/><feFlood flood-color="#141a28" flood-opacity="0.32" result="color"/><feComposite in="color" in2="off" operator="in" result="shadow"/><feMerge><feMergeNode in="shadow"/><feMergeNode in="SourceGraphic"/></feMerge></filter><filter x="-50%" y="-50%" width="200%" height="200%" id="filter945"><feGaussianBlur in="SourceAlpha" stdDeviation="10.0" result="blur"/><feOffset in="blur" dx="-7.0" dy="8.0" result="off"/><feFlood flood-color="#0c1018" flood-opacity="0.42" result="color"/><feComposite in="color" in2="off" operator="in" result="shadow"/><feMerge><feMergeNode in="shadow"/><feMergeNode in="SourceGraphic"/></feMerge></filter><linearGradient x1="1.0" y1="0.0" x2="0.0" y2="1.0" id="linearGradient6029" inkscape:label="foldLighter"><stop offset="0.0" style="stop-color:#ffffff;stop-opacity:1.0"/><stop offset="1.0" style="stop-color:#e9ecf1;stop-opacity:1.0"/></linearGradient><linearGradient x1="0.2" y1="0.0" x2="0.5" y2="1.0" id="linearGradient9767" inkscape:label="tearBW"><stop offset="0.0" style="stop-color:#ffffff;stop-opacity:1.0"/><stop offset="0.55" style="stop-color:#eef1f5;stop-opacity:1.0"/><stop offset="1.0" style="stop-color:#ccd2db;stop-opacity:1.0"/></linearGradient><filter x="-50%" y="-50%" width="200%" height="200%" id="filter5337"><feGaussianBlur in="SourceAlpha" stdDeviation="4.0" result="blur"/><feOffset in="blur" dx="0.0" dy="3.0" result="off"/><feFlood flood-color="#1a2030" flood-opacity="0.22" result="color"/><feComposite in="color" in2="off" operator="in" result="shadow"/><feMerge><feMergeNode in="shadow"/><feMergeNode in="SourceGraphic"/></feMerge></filter><filter x="-50%" y="-50%" width="200%" height="200%" id="filter803"><feGaussianBlur in="SourceAlpha" stdDeviation="3.0" result="blur"/><feOffset in="blur" dx="1.0" dy="2.5" result="off"/><feFlood flood-color="#10141f" flood-opacity="0.3" result="color"/><feComposite in="color" in2="off" operator="in" result="shadow"/><feMerge><feMergeNode in="shadow"/><feMergeNode in="SourceGraphic"/></feMerge></filter><filter x="-50%" y="-50%" width="200%" height="200%" id="filter7237"><feGaussianBlur in="SourceAlpha" stdDeviation="12.0" result="blur"/><feOffset in="blur" dx="0.0" dy="7.0" result="off"/><feFlood flood-color="#141a28" flood-opacity="0.3" result="color"/><feComposite in="color" in2="off" operator="in" result="shadow"/><feMerge><feMergeNode in="shadow"/><feMergeNode in="SourceGraphic"/></feMerge></filter><filter x="-50%" y="-50%" width="200%" height="200%" id="filter3936"><feGaussianBlur in="SourceAlpha" stdDeviation="7.0" result="blur"/><feOffset in="blur" dx="0.0" dy="5.0" result="off"/><feFlood flood-color="#141a28" flood-opacity="0.33" result="color"/><feComposite in="color" in2="off" operator="in" result="shadow"/><feMerge><feMergeNode in="shadow"/><feMergeNode in="SourceGraphic"/></feMerge></filter><filter x="-50%" y="-50%" width="200%" height="200%" id="filter1287"><feGaussianBlur in="SourceAlpha" stdDeviation="17.0" result="blur"/><feOffset in="blur" dx="0.0" dy="9.0" result="off"/><feFlood flood-color="#141a28" flood-opacity="0.4" result="color"/><feComposite in="color" in2="off" operator="in" result="shadow"/><feMerge><feMergeNode in="shadow"/><feMergeNode in="SourceGraphic"/></feMerge></filter><filter x="-50%" y="-50%" width="200%" height="200%" id="filter4174"><feGaussianBlur in="SourceAlpha" stdDeviation="9.0" result="blur"/><feOffset in="blur" dx="0.0" dy="6.0" result="off"/><feFlood flood-color="#141a28" flood-opacity="0.42" result="color"/><feComposite in="color" in2="off" operator="in" result="shadow"/><feMerge><feMergeNode in="shadow"/><feMergeNode in="SourceGraphic"/></feMerge></filter><filter x="-50%" y="-50%" width="200%" height="200%" id="filter2904"><feGaussianBlur in="SourceAlpha" stdDeviation="10.0" result="blur"/><feOffset in="blur" dx="-3.0" dy="8.0" result="off"/><feFlood flood-color="#0c1018" flood-opacity="0.44" result="color"/><feComposite in="color" in2="off" operator="in" result="shadow"/><feMerge><feMergeNode in="shadow"/><feMergeNode in="SourceGraphic"/></feMerge></filter><filter x="-50%" y="-50%" width="200%" height="200%" id="filter157"><feGaussianBlur in="SourceAlpha" stdDeviation="7.0" result="blur"/><feOffset in="blur" dx="-2.0" dy="6.0" result="off"/><feFlood flood-color="#0c1018" flood-opacity="0.44" result="color"/><feComposite in="color" in2="off" operator="in" result="shadow"/><feMerge><feMergeNode in="shadow"/><feMergeNode in="SourceGraphic"/></feMerge></filter><clipPath id="clipPath6186" inkscape:label="brainClip"><path d="M 285.98 351.32 c 1.22 0.27 1.83 1.01 2.59 2.11 c 11.85 17.2 23.19 34.5 34.15 52.28 l 3.02 5.9 c 0.74 1.45 0.71 3.69 -0.54 5.03 c -1.74 1.87 -5.5 1.77 -7.06 -0.51 l -10.14 -14.84 l -26.11 -40.85 c -0.97 -0.59 -1.88 -0.82 -2.95 -1.18 c -19.15 -4.6 -35.28 -17.63 -41.84 -36.6 c -10.18 2.21 -19.91 4.02 -30.01 4.63 l -20.16 0.15 c -36.03 -3.1 -67.64 -20.32 -72.83 -58.96 c -23.66 6.75 -49.15 3.9 -71.28 -5.52 c -7.28 -3.1 -13.73 -7.21 -19.84 -12.25 c -11.06 -9.13 -18.64 -21.32 -21.77 -35.23 c -3.83 -21 1.32 -41.78 15.9 -57.1 c -3.31 -18.42 0.91 -36.17 13.23 -50.02 c 8.28 -8.97 18.97 -14.86 30.7 -17.44 c 3.83 -20.08 18.66 -35.69 37.94 -41.84 c 10.04 -3.21 20.58 -4.14 31.47 -2.94 c 7.48 -11.53 17.81 -20.41 30.09 -26.2 c 14.26 -7.14 29.83 -10.05 45.97 -8.88 c 8.77 0.64 16.97 2.04 24.88 5.37 c 9.55 -7.66 20.31 -12.91 32.17 -15.05 c 11.01 -1.98 21.91 -1.88 32.61 0.68 c 12.69 3.04 26.29 10.08 33.96 21.23 c 17.96 -6.39 37.03 -3.84 51.62 7.76 c 6.96 5.54 11.74 12.83 14.03 21.42 l 11.95 0.55 c 26.33 5.08 44.98 28.18 47.1 55.07 c 12.36 3.85 22.85 12.02 30.21 22.92 c 8.09 11.98 11.14 26.57 9.12 41.14 c 14.79 15.14 20.58 36.85 16.6 57.57 c -1.44 7.5 -3.95 14.33 -8.07 20.82 c 2.23 8.67 2.19 17.62 -0.31 26.23 c -4.87 16.37 -16.98 27.16 -33.26 32.78 c -2.57 19.52 -12.26 37.1 -27.58 49.72 c -16.78 13.83 -37.45 21.57 -59.25 22.63 c -10.84 0.53 -21.11 -0.69 -31.67 -2.82 c -0.2 1 0.06 1.71 0.33 2.62 c 2.99 10.28 6.99 19.95 10.96 29.83 c 0.6 1.48 0.11 3.44 -0.63 4.31 c -0.98 1.16 -2.86 1.57 -4.45 0.71 c -1.48 -0.8 -2.63 -2.41 -3.43 -4.05 c -4.6 -9.47 -8.53 -19.1 -11.96 -29.15 l -2.33 -8.38 c -6.13 -2.62 -11.62 -5.41 -16.96 -9.03 c -19.41 -13.14 -29.22 -34.11 -31.18 -57.03 l -17.85 4.39 l -26.02 6.93 c 6.24 17.47 21.68 27.31 38.85 31.1 Z" id="path7909" inkscape:label="clipBrain" style="fill:#ffffff"/></clipPath><filter x="-50%" y="-50%" width="200%" height="200%" id="filter4837" data-fx="[{&quot;kind&quot;:&quot;drop_shadow&quot;,&quot;params&quot;:{&quot;dx&quot;:-3.0,&quot;dy&quot;:11.0,&quot;blur&quot;:18.0,&quot;color&quot;:&quot;#05070c&quot;,&quot;opacity&quot;:0.82}},{&quot;kind&quot;:&quot;outer_glow&quot;,&quot;params&quot;:{&quot;size&quot;:6.0,&quot;color&quot;:&quot;#4aa3ff&quot;,&quot;opacity&quot;:0.85}}]"><feGaussianBlur in="SourceAlpha" stdDeviation="18.0" result="e0b"/><feOffset in="e0b" dx="-3.0" dy="11.0" result="e0o"/><feFlood flood-color="#05070c" flood-opacity="0.82" result="e0c"/><feComposite in="e0c" in2="e0o" operator="in" result="e0"/><feGaussianBlur in="SourceAlpha" stdDeviation="6.0" result="e1b"/><feFlood flood-color="#4aa3ff" flood-opacity="0.85" result="e1c"/><feComposite in="e1c" in2="e1b" operator="in" result="e1"/><feMerge><feMergeNode in="e0"/><feMergeNode in="e1"/><feMergeNode in="SourceGraphic"/></feMerge></filter><filter x="-50%" y="-50%" width="200%" height="200%" id="filter9739" data-fx="[{&quot;kind&quot;:&quot;drop_shadow&quot;,&quot;params&quot;:{&quot;dx&quot;:-1.0,&quot;dy&quot;:5.0,&quot;blur&quot;:8.0,&quot;color&quot;:&quot;#05070c&quot;,&quot;opacity&quot;:0.8}},{&quot;kind&quot;:&quot;outer_glow&quot;,&quot;params&quot;:{&quot;size&quot;:3.0,&quot;color&quot;:&quot;#4aa3ff&quot;,&quot;opacity&quot;:0.85}}]"><feGaussianBlur in="SourceAlpha" stdDeviation="8.0" result="e0b"/><feOffset in="e0b" dx="-1.0" dy="5.0" result="e0o"/><feFlood flood-color="#05070c" flood-opacity="0.8" result="e0c"/><feComposite in="e0c" in2="e0o" operator="in" result="e0"/><feGaussianBlur in="SourceAlpha" stdDeviation="3.0" result="e1b"/><feFlood flood-color="#4aa3ff" flood-opacity="0.85" result="e1c"/><feComposite in="e1c" in2="e1b" operator="in" result="e1"/><feMerge><feMergeNode in="e0"/><feMergeNode in="e1"/><feMergeNode in="SourceGraphic"/></feMerge></filter></defs><g inkscape:label="drip" id="g847" transform="matrix(0.8091 0 0 0.8091 -47.1296 51.5207)"><path d="M 256 186 C 259 205 275 219 275 229 C 275 241 267 249 256 249 C 245 249 237 241 237 229 C 237 219 253 205 256 186 Z" id="path9046" inkscape:label="tear" style="fill:none;stroke:#141414;stroke-linejoin:round;stroke-width:4.83;filter:url(#filter9739)"/></g><g inkscape:label="heroBrain" id="g418" transform="matrix(0.507998 0 0 0.507998 43.9527 15.8285)" style="filter:url(#filter4837)"><path d="M 285.98 351.32 c 1.22 0.27 1.83 1.01 2.59 2.11 c 11.85 17.2 23.19 34.5 34.15 52.28 l 3.02 5.9 c 0.74 1.45 0.71 3.69 -0.54 5.03 c -1.74 1.87 -5.5 1.77 -7.06 -0.51 l -10.14 -14.84 l -26.11 -40.85 c -0.97 -0.59 -1.88 -0.82 -2.95 -1.18 c -19.15 -4.6 -35.28 -17.63 -41.84 -36.6 c -10.18 2.21 -19.91 4.02 -30.01 4.63 l -20.16 0.15 c -36.03 -3.1 -67.64 -20.32 -72.83 -58.96 c -23.66 6.75 -49.15 3.9 -71.28 -5.52 c -7.28 -3.1 -13.73 -7.21 -19.84 -12.25 c -11.06 -9.13 -18.64 -21.32 -21.77 -35.23 c -3.83 -21 1.32 -41.78 15.9 -57.1 c -3.31 -18.42 0.91 -36.17 13.23 -50.02 c 8.28 -8.97 18.97 -14.86 30.7 -17.44 c 3.83 -20.08 18.66 -35.69 37.94 -41.84 c 10.04 -3.21 20.58 -4.14 31.47 -2.94 c 7.48 -11.53 17.81 -20.41 30.09 -26.2 c 14.26 -7.14 29.83 -10.05 45.97 -8.88 c 8.77 0.64 16.97 2.04 24.88 5.37 c 9.55 -7.66 20.31 -12.91 32.17 -15.05 c 11.01 -1.98 21.91 -1.88 32.61 0.68 c 12.69 3.04 26.29 10.08 33.96 21.23 c 17.96 -6.39 37.03 -3.84 51.62 7.76 c 6.96 5.54 11.74 12.83 14.03 21.42 l 11.95 0.55 c 26.33 5.08 44.98 28.18 47.1 55.07 c 12.36 3.85 22.85 12.02 30.21 22.92 c 8.09 11.98 11.14 26.57 9.12 41.14 c 14.79 15.14 20.58 36.85 16.6 57.57 c -1.44 7.5 -3.95 14.33 -8.07 20.82 c 2.23 8.67 2.19 17.62 -0.31 26.23 c -4.87 16.37 -16.98 27.16 -33.26 32.78 c -2.57 19.52 -12.26 37.1 -27.58 49.72 c -16.78 13.83 -37.45 21.57 -59.25 22.63 c -10.84 0.53 -21.11 -0.69 -31.67 -2.82 c -0.2 1 0.06 1.71 0.33 2.62 c 2.99 10.28 6.99 19.95 10.96 29.83 c 0.6 1.48 0.11 3.44 -0.63 4.31 c -0.98 1.16 -2.86 1.57 -4.45 0.71 c -1.48 -0.8 -2.63 -2.41 -3.43 -4.05 c -4.6 -9.47 -8.53 -19.1 -11.96 -29.15 l -2.33 -8.38 c -6.13 -2.62 -11.62 -5.41 -16.96 -9.03 c -19.41 -13.14 -29.22 -34.11 -31.18 -57.03 l -17.85 4.39 l -26.02 6.93 c 6.24 17.47 21.68 27.31 38.85 31.1 Z M 450.36 145.04 c 11.89 10.34 14.5 25.3 9.37 40.08 c 18.73 12.67 24.42 31.62 17.81 53.12 c -3.95 12.83 -12.68 23.68 -24.84 29.6 c -5.84 2.84 -15.98 5.51 -16.23 -0.12 c -0.08 -1.65 1.41 -2.88 3.15 -3.34 c 11.3 -2.99 20.46 -10.23 26.19 -20.44 c 4.27 -7.61 6.39 -16.17 5.85 -25.01 c -0.76 -12.42 -9.12 -22.79 -20.06 -28.22 c -2.04 -1.01 -2.53 -3.06 -1.63 -5.09 c 4.51 -10.15 4.57 -22.47 -2.82 -30.86 c -6.5 -7.38 -15.07 -10.64 -24.96 -11.45 c -13.08 30.58 -47.35 49.51 -79.96 42.69 c -6.89 -1.44 -13.07 -3.85 -19.22 -7.05 c -8.55 -4.46 -17.91 -6.55 -27.79 -5.83 s -20.05 3.38 -29.24 7.56 c -5.94 2.69 -11.2 6.35 -14.91 11.81 c -1.01 1.48 -2.73 3 -4.59 1.66 c -10.64 -7.71 -25.35 -8.49 -38.71 -7 c -19.18 2.14 -35.71 6.91 -51.46 17.61 c -8.11 5.51 -14.88 12.25 -20.57 20.25 c -7.93 11.14 -12.4 24 -11.92 37.9 c 0.38 10.91 3.92 21.23 10.38 29.82 c 12.45 16.55 35.13 23.09 55.24 24.18 c 17.79 0.97 40.3 -3.19 57.52 -7.65 l 37.44 -9.68 c 50.63 -13.09 91.69 -12.48 142.41 -0.93 c 15.48 3.53 31.6 4.42 45.92 -1.84 s 22.62 -18.93 22.88 -33.87 c 0.08 -4.76 -0.59 -9.06 -2.54 -13.31 c 14.81 -23.25 11.71 -54.71 -8.8 -73.63 l 1.21 -6.83 c 1.25 -15.82 -4.79 -31.05 -16.51 -41.62 c -6.15 -5.54 -12.91 -9.35 -20.73 -11.39 c -1.82 -0.47 -2.37 -2.16 -2.47 -3.88 c -0.57 -9.93 -3.85 -19.09 -8.93 -27.6 c -2.71 -4.55 -6.04 -8.19 -9.99 -11.71 c -6.74 -6 -14.67 -9.33 -23.61 -10.19 c -13.77 -1.32 -28.36 6.14 -34.17 18.54 c -2.38 5.07 -3.08 10.6 -1.31 15.78 l 3.78 7.94 c 6.16 15.09 1.49 32.42 -10.86 42.96 c -8.6 7.34 -19.54 10.56 -30.6 8.05 c -15.85 -3.6 -22.33 -20.28 -16.73 -34.55 c 4.23 -10.79 13.08 -15.54 14.02 -28.04 c 0.79 -10.54 -5.67 -19.43 -15.83 -21.89 c -7.04 -1.71 -14.36 -0.35 -20.53 3.94 c -8.18 5.68 -12.56 15.04 -12.97 24.95 l -0.19 4.62 c -0.07 1.7 -1.31 3.13 -2.71 3.44 c -1.03 0.23 -3.06 0.04 -3.57 -1.47 c -4.86 -14.39 0.15 -30.07 12.38 -39.07 c 4.3 -3.16 8.57 -5.46 13.79 -6.57 l 5.31 -1.13 c 0.16 -13.27 6.37 -23.79 17.19 -31.86 c -3.34 -4.21 -7.36 -7.14 -11.79 -9.88 c -8.77 -5.42 -18.63 -7.68 -29.05 -8.07 c -13.51 -0.51 -26.06 3.21 -37.11 10.87 c -12.45 8.63 -22.6 22.09 -25.17 36.79 c -0.23 1.32 -0.95 2.3 -1.85 2.67 c -1.13 0.46 -2.24 0.38 -3.42 -0.18 c -9.31 -4.42 -20.22 -4.25 -29.2 1.02 c -9.64 5.67 -15.73 15.3 -17.56 26.2 c -0.83 4.92 -1.11 9.82 0.36 14.62 c 0.37 1.21 0.78 2.87 -0.34 3.77 c -0.67 0.54 -2.04 1.21 -3.2 0.65 c -9.07 -4.41 -20.99 -2.43 -25.57 6.74 c -7.14 14.31 1.86 33.86 16.28 40.83 l 6.11 2.96 c 2.04 0.99 2.8 2.86 2.24 4.83 s -2.58 2.88 -4.89 2.44 c -10.09 -1.95 -18.53 -7.81 -24.67 -16.18 s -8.94 -19.93 -7.18 -30.7 c 2.42 -14.77 15.4 -23.47 30.32 -23.3 c 0.29 -11.12 3.47 -21.33 9.74 -29.94 c 10.25 -14.08 27.24 -20.28 44.29 -15.85 c 2.2 -8.65 7.03 -16.35 12.68 -23.29 c -6.9 -2.61 -13.93 -3.55 -21.44 -3.7 c -21.08 -0.42 -41.38 7.07 -55.45 22.88 c -3.28 3.69 -5.69 7.7 -7.79 12.21 c -0.45 0.97 -1.87 1.41 -2.86 1.09 c -28.47 -9.14 -59.7 9.2 -63.17 38.58 c -0.19 1.61 -1.49 2.68 -3.04 2.93 c -9.18 1.52 -17.78 4.73 -24.93 10.86 c -9.01 7.72 -14.62 18.37 -16.11 30.08 c -0.82 6.49 -0.18 12.83 0.94 19.28 c 0.16 0.91 -0.04 1.91 -0.78 2.61 c -22.51 21.22 -23.12 56.57 -0.51 78.19 c 14.18 13.55 34.41 19.49 53.65 21.02 c 11.82 0.94 23.38 -0.4 34.56 -4.06 c 1.09 -18.04 9.36 -34.16 21.3 -47.47 c 20.36 -21.28 44.23 -29.98 73.63 -32.26 l -6.96 -7.21 c -8.14 -9.19 -13.87 -19.91 -16.18 -32.03 c -3.61 -18.99 2.78 -39.7 19.98 -48.65 c 1.39 -0.72 3.7 -1.3 4.92 -0.5 c 2.27 1.47 1.59 4.54 -0.18 5.95 l -3.98 3.18 c -19.84 18.11 -13.54 51.82 5.47 68.73 c 9.55 8.49 21.91 12.14 34.58 10.02 s 23.42 -10.54 28.2 -22.5 c 1.41 -3.52 2.24 -6.88 2.87 -10.53 c 0.78 -4.5 1.53 -12.27 4.27 -13.07 c 0.88 -0.26 2.15 -0.25 3.03 0.4 c 1.58 1.17 2.12 3.61 2.04 5.74 c -0.38 9.66 -3.01 18.58 -7.19 27.44 c 5.83 -1.58 11.23 -2.02 16.9 -2.34 c 9.41 -0.54 18.16 1.86 26.56 6.01 l 8.69 4.29 c 7.78 3.41 15.91 5.44 24.42 5.14 c 21.86 -0.76 43.25 -12.96 53.53 -32.6 c 9.43 -17.99 5.9 -38.94 -12.3 -48.25 c -1.62 -0.83 -3.34 -2.2 -3.01 -4.13 c 0.37 -2.17 2.64 -3.46 4.87 -2.78 c 13.93 4.29 23.18 16.8 24.27 31.22 c 0.33 4.41 0.42 8.59 -0.34 13 c 10.01 1.11 19.06 4.31 26.59 10.86 Z M 363.52 127.16 c 2.51 -7.93 1.16 -15.83 -2.92 -22.91 c -6.88 -11.92 -3.99 -26.4 5.32 -36.4 c 5.53 -5.94 12.24 -10.24 20.1 -12.36 c -1.43 -6.08 -4.65 -11.09 -9.24 -15.31 c -7.63 -7 -17.38 -10.25 -27.8 -10.23 c -9.74 0.02 -18.82 3.09 -25.95 9.58 c -6.26 5.7 -10.29 13.22 -10.31 21.91 c 15.12 2.79 25.95 16.34 24.8 31.67 c -0.43 5.74 -1.99 10.95 -5.22 15.72 l -7.02 10.41 c -3.55 5.26 -4.87 11.62 -3.2 17.76 c 1.34 4.91 5.06 8.32 10 9.57 c 13.72 3.45 27.17 -5.89 31.45 -19.41 Z M 343.52 338.75 c -10.07 1.01 -19.71 3 -29.6 6 c 3.8 5.76 8.66 10.19 14.43 13.8 c 17.95 11.21 39.09 15.07 60.68 12.71 c 17.85 -1.95 34.63 -8.91 48.22 -20.89 c 11.36 -10.02 18.55 -23.48 21.41 -38.33 c -8.74 0.42 -16.82 -0.64 -25.13 -2.39 l -8.4 -1.77 c -18.15 -4.17 -36.28 -6.77 -54.94 -7.71 c -12.41 -0.63 -24.22 0.23 -36.66 1.09 c -11.16 1.12 -21.94 2.77 -33 5.35 c 0.15 10.96 3.4 21.57 8.96 30.5 c 12.71 -3.72 24.89 -6.28 37.79 -7.04 c 12.81 -0.62 24.98 0.5 37.5 2.8 l 20.4 3.75 l 10.3 1.79 c 1.56 0.27 2.81 1.28 3 2.62 c 0.2 1.46 -0.57 2.64 -1.9 3.29 c -1.69 0.82 -3.47 0.69 -5.27 0.41 l -15.29 -2.33 c -18.47 -2.82 -32.66 -5.64 -52.5 -3.65 Z" id="path5520" inkscape:label="brainMain" style="fill:#141414"/><path d="M 104.64 200.23 c -17.59 1.65 -33.96 -4.88 -44.02 -19.85 c -2.54 1.42 -4.71 3.08 -6.95 5.09 c -7.56 6.8 -9.37 17.6 -4.56 26.68 c 8.42 15.88 28.19 18.18 44.13 11.66 c 0.82 -0.34 2.1 -0.24 2.75 0.14 c 0.96 0.56 1.44 1.65 1.46 2.54 c 0.02 1.09 -0.39 2.26 -1.39 3.07 c -16.73 13.54 -50.09 5.86 -58.21 -18.26 c -3.57 -10.62 -1.1 -21.69 6.26 -30.02 c 3.14 -3.56 6.76 -6.19 10.99 -8.91 c -4.42 -11.87 -3.82 -23.97 3.43 -34.54 c 6.82 -9.94 18.44 -14.95 30.68 -13.43 c -3.39 -19.11 9.65 -35.27 27.7 -39.34 c 1.95 -0.23 3.41 0.56 4.05 2.12 c 0.59 1.43 -0.11 3.22 -1.72 3.93 c -5.49 2.41 -10.22 5.73 -14.23 10.35 c -5.7 6.57 -8.06 15.52 -5.54 24.03 c 1.92 6.5 10.55 8.98 13.62 21.79 c 1.38 5.77 1.77 11.81 0.86 17.6 c -0.22 1.38 -1.33 2.32 -2.27 2.55 c -1.28 0.3 -2.87 -0.15 -3.55 -1.49 c -3.2 -6.27 -1.15 -14.89 -7.71 -24.27 c -3.56 -5.08 -8.86 -8.09 -15.09 -8.3 c -14.19 -0.49 -24.26 11.76 -22.96 25.9 c 0.7 7.59 4.19 14.23 9.29 19.9 c 12.29 13.68 28.8 13.03 46.11 10.06 c 1.9 -0.33 3.76 0.99 4.15 2.3 c 0.58 1.92 -0.19 3.55 -1.94 4.49 c -4.73 2.55 -9.97 3.72 -15.35 4.23 Z" id="path8780" inkscape:label="brainG2" style="fill:#141414"/><path d="M 220.53 274.99 c -5.46 -3.72 -12.54 -11.09 -8.32 -14.52 c 1.64 -1.33 3.84 -1 5.29 0.7 c 5.19 6.07 12.07 9.91 20.01 11.18 c 9.9 1.58 19.67 0.26 29.4 -2.27 l 20.86 -5.44 c 14.83 -3.87 29.5 -6.37 44.93 -6.97 c 11.64 -0.46 22.68 0.44 34.16 1.91 c 7.74 1 15.07 1.63 22.8 1.09 c 9.78 -0.67 19.32 -2.84 27.79 -7.52 c 10.92 -6.03 18.32 -15.95 21.19 -27.88 c 0.47 -1.95 1.98 -3.33 3.83 -3.1 c 1.71 0.21 2.93 2.02 2.72 4.21 c -1.14 11.88 -7.43 22.57 -16.8 30.18 c -14.71 11.95 -33.72 15.14 -52.78 13.42 l -22.1 -2 c -29.08 -2.63 -56.28 3.32 -83.67 10.81 c -8.95 2.45 -17.75 4.19 -26.93 3.5 c -8.06 -0.61 -15.63 -2.69 -22.4 -7.31 Z" id="path9200" inkscape:label="brainG3" style="fill:#141414"/><path d="M 195.54 284.57 c 1.69 0.42 1.72 2.53 1.23 3.75 c -0.4 1.01 -1.54 2.2 -3.08 2.31 c -6.19 0.46 -12.56 -0.88 -18.03 -3.85 c -16.54 -8.97 -18.1 -30.18 -8.22 -45.55 c 5.96 -9.27 14.9 -15.68 25.26 -19.27 c 7.29 -2.52 14.73 -3.16 22.61 -2.82 s 14.66 2.2 21.62 5.01 c 7.64 3.09 15.36 4.87 23.53 4.43 c 16.85 -0.91 31.25 -10.82 37.79 -26.49 c 0.62 -1.5 2.81 -1.39 3.94 -0.91 c 1.19 0.5 2.39 2.22 1.79 3.93 c -6.16 17.37 -21.65 30.33 -39.9 32.82 c -10.22 1.39 -19.63 -0.08 -28.85 -4.1 c -6.17 -2.69 -12.4 -4.71 -19.1 -5.38 c -9.85 -0.98 -19.33 0.77 -27.84 5.38 c -6.68 3.62 -11.57 8.89 -14.85 15.63 c -6.42 13.17 -0.63 29.41 12.97 32.82 l 9.13 2.29 Z" id="path5510" inkscape:label="brainG4" style="fill:#141414"/><path d="M 306.4 232.79 l 9.12 -2.1 c 9.09 -2.09 17.08 -6.59 23.85 -13.14 c 1.11 -1.08 2.98 -0.63 4.22 -0.09 c 17.04 7.39 34.27 10.37 51.9 2.85 c 13.39 -5.71 20.89 -16.25 24.51 -29.97 c 0.56 -2.13 1.56 -3.43 3.83 -3.27 c 7.02 0.49 -1.06 19.73 -8.35 28.19 c -3.26 3.78 -6.59 6.97 -10.72 9.79 c -12.13 8.26 -26.94 11.19 -41.59 8.75 c -7.06 -1.18 -13.24 -3.74 -19.4 -6.6 c -10.23 8.47 -23.43 12.5 -36.43 11.48 c -1.59 -0.53 -2.74 -1.25 -2.94 -2.63 c -0.17 -1.23 0.59 -2.91 2.02 -3.24 Z" id="path2233" inkscape:label="brainG5" style="fill:#141414"/><path d="M 243.97 138.39 c 0.75 2.02 0.54 4.59 -1.21 5.78 c -2.02 1.37 -4.58 0.19 -5.66 -1.83 c -6.78 -12.67 -9.83 -27.08 -8.71 -41.68 c 1 -13.14 5.42 -25.15 12.94 -35.74 c 5.45 -7.67 11.99 -14.23 20.18 -18.97 c 4.76 -2.76 12.41 -6.18 13.98 -2.09 c 0.62 1.62 -0.07 3.16 -1.6 4.06 c -3.69 2.16 -7.22 4.21 -10.53 7.02 c -9.04 7.68 -15.93 17.19 -20.67 28.04 c -8.18 18.72 -5.58 36.85 1.28 55.43 Z" id="path2726" inkscape:label="brainG6" style="fill:#141414"/></g></svg>