<svg xmlns="http://www.w3.org/2000/svg" xmlns:inkscape="http://www.inkscape.org/namespaces/inkscape" xmlns:sodipodi="http://sodipodi.sourceforge.net/DTD/sodipodi-0.0.dtd" xmlns:xlink="http://www.w3.org/1999/xlink" width="1240.0" height="500.0" viewBox="0 0 1240.0 500.0"><rect x="0.0" y="0.0" width="1240.0" height="500.0" id="rect4021" style="fill:#ffffff"/><text x="620.0" y="42.0" id="text3832" style="fill:#0f172a;font-family:Helvetica, Arial, sans-serif;font-size:24px;font-weight:700;text-anchor:middle">cribsheet &#8212; command surface</text><text x="620.0" y="67.0" id="text5193" style="fill:#64748b;font-family:Helvetica, Arial, sans-serif;font-size:13px;text-anchor:middle">noun &#183; verb &#8212; on the CLI: crib &lt;noun&gt; &lt;verb&gt;   &#183;   as an MCP tool: &lt;noun&gt;_&lt;verb&gt;</text><rect x="30.0" y="94.0" width="280.0" height="366.0" rx="14.0" id="rect7949" style="fill:#eff6ff;stroke:#2563eb;stroke-width:2.0"/><rect x="325.0" y="94.0" width="280.0" height="366.0" rx="14.0" id="rect9807" style="fill:#f0fdfa;stroke:#0d9488;stroke-width:2.0"/><rect x="620.0" y="94.0" width="280.0" height="366.0" rx="14.0" id="rect4707" style="fill:#fffbeb;stroke:#b45309;stroke-width:2.0"/><rect x="915.0" y="94.0" width="280.0" height="366.0" rx="14.0" id="rect9984" style="fill:#f5f3ff;stroke:#6d28d9;stroke-width:2.0"/><path d="M 270 108 c 0 0 0 0 0 0 a 20 20 0 0 1 20 20 c 0 0 0 0 0 0 L 290 128 c 0 0 0 0 0 0 a 20 20 0 0 1 -20 20 c 0 0 0 0 0 0 L 70 148 c 0 0 0 0 -0 -0 a 20 20 0 0 1 -20 -20 c -0 -0 -0 -0 -0 -0 L 50 128 c 0 -0 0 -0 0 -0 a 20 20 0 0 1 20 -20 c 0 -0 0 -0 0 -0 Z" id="path1330" style="fill:#2563eb"/><path d="M 565 108 c 0 0 0 0 0 0 a 20 20 0 0 1 20 20 c 0 0 0 0 0 0 L 585 128 c 0 0 0 0 0 0 a 20 20 0 0 1 -20 20 c 0 0 0 0 0 0 L 365 148 c 0 0 0 0 -0 -0 a 20 20 0 0 1 -20 -20 c -0 -0 -0 -0 -0 -0 L 345 128 c 0 -0 0 -0 0 -0 a 20 20 0 0 1 20 -20 c 0 -0 0 -0 0 -0 Z" id="path9137" style="fill:#0d9488"/><path d="M 860 108 c 0 0 0 0 0 0 a 20 20 0 0 1 20 20 c 0 0 0 0 0 0 L 880 128 c 0 0 0 0 0 0 a 20 20 0 0 1 -20 20 c 0 0 0 0 0 0 L 660 148 c 0 0 0 0 -0 -0 a 20 20 0 0 1 -20 -20 c -0 -0 -0 -0 -0 -0 L 640 128 c 0 -0 0 -0 0 -0 a 20 20 0 0 1 20 -20 c 0 -0 0 -0 0 -0 Z" id="path6340" style="fill:#b45309"/><path d="M 1155 108 c 0 0 0 0 0 0 a 20 20 0 0 1 20 20 c 0 0 0 0 0 0 L 1175 128 c 0 0 0 0 0 0 a 20 20 0 0 1 -20 20 c 0 0 0 0 0 0 L 955 148 c 0 0 0 0 -0 -0 a 20 20 0 0 1 -20 -20 c -0 -0 -0 -0 -0 -0 L 935 128 c 0 -0 0 -0 0 -0 a 20 20 0 0 1 20 -20 c 0 -0 0 -0 0 -0 Z" id="path420" style="fill:#6d28d9"/><text x="170.0" y="135.0" id="text3883" style="fill:#ffffff;font-family:Helvetica, Arial, sans-serif;font-size:19px;font-weight:700;text-anchor:middle">note</text><text x="465.0" y="135.0" id="text8704" style="fill:#ffffff;font-family:Helvetica, Arial, sans-serif;font-size:19px;font-weight:700;text-anchor:middle">code</text><text x="760.0" y="135.0" id="text4489" style="fill:#ffffff;font-family:Helvetica, Arial, sans-serif;font-size:19px;font-weight:700;text-anchor:middle">learning</text><text x="1055.0" y="135.0" id="text1236" style="fill:#ffffff;font-family:Helvetica, Arial, sans-serif;font-size:19px;font-weight:700;text-anchor:middle">project</text><text x="170.0" y="176.0" id="text1761" style="fill:#64748b;font-family:Helvetica, Arial, sans-serif;font-size:11px;font-style:italic;text-anchor:middle">durable memory &#8212; facts, docs</text><text x="465.0" y="176.0" id="text2635" style="fill:#64748b;font-family:Helvetica, Arial, sans-serif;font-size:11px;font-style:italic;text-anchor:middle">concept + name search over code</text><text x="760.0" y="176.0" id="text512" style="fill:#64748b;font-family:Helvetica, Arial, sans-serif;font-size:11px;font-style:italic;text-anchor:middle">durable notes on code symbols</text><text x="1055.0" y="176.0" id="text60" style="fill:#64748b;font-family:Helvetica, Arial, sans-serif;font-size:11px;font-style:italic;text-anchor:middle">separate memory namespaces</text><text x="170.0" y="210.0" data-line-height="1.55" id="text9975" style="fill:#1e3a8a;font-family:monospace;font-size:12.5px;text-anchor:middle"><tspan x="170.0" dy="0">lookup &#183; apropos</tspan><tspan x="170.0" dy="1.55em">read &#183; locate</tspan><tspan x="170.0" dy="1.55em">store &#183; append &#183; edit</tspan><tspan x="170.0" dy="1.55em">forget &#183; move</tspan><tspan x="170.0" dy="1.55em">reindex &#183; versions &#183; restore</tspan><tspan x="170.0" dy="1.55em">distill &#183; elaborate &#183; summarize</tspan><tspan x="170.0" dy="1.55em">history</tspan><tspan x="170.0" dy="1.55em">import &#183; setup</tspan><tspan x="170.0" dy="1.55em">sync &#183; push &#183; pull</tspan><tspan x="170.0" dy="1.55em">snapshot</tspan></text><text x="465.0" y="210.0" data-line-height="1.55" id="text2358" style="fill:#0f766e;font-family:monospace;font-size:12.5px;text-anchor:middle"><tspan x="465.0" dy="0">lookup</tspan><tspan x="465.0" dy="1.55em">xref</tspan><tspan x="465.0" dy="1.55em">dossier</tspan><tspan x="465.0" dy="1.55em">graph</tspan><tspan x="465.0" dy="1.55em">index</tspan></text><text x="760.0" y="210.0" data-line-height="1.55" id="text1107" style="fill:#92400e;font-family:monospace;font-size:12.5px;text-anchor:middle"><tspan x="760.0" dy="0">add &#183; edit</tspan><tspan x="760.0" dy="1.55em">forget &#183; read</tspan><tspan x="760.0" dy="1.55em">reaffirm</tspan><tspan x="760.0" dy="1.55em">report &#183; rehome</tspan></text><text x="1055.0" y="210.0" data-line-height="1.55" id="text5407" style="fill:#5b21b6;font-family:monospace;font-size:12.5px;text-anchor:middle"><tspan x="1055.0" dy="0">list &#183; use &#183; current</tspan><tspan x="1055.0" dy="1.55em">setup &#183; index</tspan><tspan x="1055.0" dy="1.55em">status &#183; forget</tspan><tspan x="1055.0" dy="1.55em">reconcile</tspan></text><text x="620.0" y="486.0" id="text2876" style="fill:#64748b;font-family:Helvetica, Arial, sans-serif;font-size:11.5px;text-anchor:middle">the same four nouns on the CLI and as MCP tools &#8212; full reference in docs/surface.md</text></svg>
