<svg xmlns="http://www.w3.org/2000/svg" xmlns:inkscape="http://www.inkscape.org/namespaces/inkscape" xmlns:sodipodi="http://sodipodi.sourceforge.net/DTD/sodipodi-0.0.dtd" xmlns:xlink="http://www.w3.org/1999/xlink" width="1240.0" height="500.0" viewBox="0 0 1240.0 500.0"><rect x="0.0" y="0.0" width="1240.0" height="500.0" id="rect6674" style="fill:#ffffff"/><text x="620.0" y="42.0" id="text2798" style="fill:#0f172a;font-family:Helvetica, Arial, sans-serif;font-size:24px;font-weight:700;text-anchor:middle">cribsheet &#8212; command surface</text><text x="620.0" y="67.0" id="text6571" style="fill:#64748b;font-family:Helvetica, Arial, sans-serif;font-size:13px;text-anchor:middle">noun &#183; verb &#8212; on the CLI: crib &lt;noun&gt; &lt;verb&gt;   &#183;   as an MCP tool: &lt;noun&gt;_&lt;verb&gt;</text><rect x="20.0" y="94.0" width="228.0" height="366.0" rx="14.0" id="rect3454" style="fill:#eff6ff;stroke:#2563eb;stroke-width:2.0"/><rect x="262.0" y="94.0" width="228.0" height="366.0" rx="14.0" id="rect3488" style="fill:#f0fdfa;stroke:#0d9488;stroke-width:2.0"/><rect x="504.0" y="94.0" width="228.0" height="366.0" rx="14.0" id="rect1645" style="fill:#fffbeb;stroke:#b45309;stroke-width:2.0"/><rect x="746.0" y="94.0" width="228.0" height="366.0" rx="14.0" id="rect9688" style="fill:#f5f3ff;stroke:#6d28d9;stroke-width:2.0"/><rect x="988.0" y="94.0" width="228.0" height="366.0" rx="14.0" id="rect3891" style="fill:#f1f5f9;stroke:#475569;stroke-width:2.0"/><path d="M 210 108 c 0 0 0 0 0 0 a 20 20 0 0 1 20 20 c 0 0 0 0 0 0 L 230 128 c 0 0 0 0 0 0 a 20 20 0 0 1 -20 20 c 0 0 0 0 0 0 L 58 148 c 0 0 0 0 -0 -0 a 20 20 0 0 1 -20 -20 c -0 -0 -0 -0 -0 -0 L 38 128 c 0 -0 0 -0 0 -0 a 20 20 0 0 1 20 -20 c 0 -0 0 -0 0 -0 Z" id="path5749" style="fill:#2563eb"/><path d="M 452 108 c 0 0 0 0 0 0 a 20 20 0 0 1 20 20 c 0 0 0 0 0 0 L 472 128 c 0 0 0 0 0 0 a 20 20 0 0 1 -20 20 c 0 0 0 0 0 0 L 300 148 c 0 0 0 0 -0 -0 a 20 20 0 0 1 -20 -20 c -0 -0 -0 -0 -0 -0 L 280 128 c 0 -0 0 -0 0 -0 a 20 20 0 0 1 20 -20 c 0 -0 0 -0 0 -0 Z" id="path4396" style="fill:#0d9488"/><path d="M 694 108 c 0 0 0 0 0 0 a 20 20 0 0 1 20 20 c 0 0 0 0 0 0 L 714 128 c 0 0 0 0 0 0 a 20 20 0 0 1 -20 20 c 0 0 0 0 0 0 L 542 148 c 0 0 0 0 -0 -0 a 20 20 0 0 1 -20 -20 c -0 -0 -0 -0 -0 -0 L 522 128 c 0 -0 0 -0 0 -0 a 20 20 0 0 1 20 -20 c 0 -0 0 -0 0 -0 Z" id="path5095" style="fill:#b45309"/><path d="M 936 108 c 0 0 0 0 0 0 a 20 20 0 0 1 20 20 c 0 0 0 0 0 0 L 956 128 c 0 0 0 0 0 0 a 20 20 0 0 1 -20 20 c 0 0 0 0 0 0 L 784 148 c 0 0 0 0 -0 -0 a 20 20 0 0 1 -20 -20 c -0 -0 -0 -0 -0 -0 L 764 128 c 0 -0 0 -0 0 -0 a 20 20 0 0 1 20 -20 c 0 -0 0 -0 0 -0 Z" id="path8118" style="fill:#6d28d9"/><path d="M 1178 108 c 0 0 0 0 0 0 a 20 20 0 0 1 20 20 c 0 0 0 0 0 0 L 1198 128 c 0 0 0 0 0 0 a 20 20 0 0 1 -20 20 c 0 0 0 0 0 0 L 1026 148 c 0 0 0 0 -0 -0 a 20 20 0 0 1 -20 -20 c -0 -0 -0 -0 -0 -0 L 1006 128 c 0 -0 0 -0 0 -0 a 20 20 0 0 1 20 -20 c 0 -0 0 -0 0 -0 Z" id="path5134" style="fill:#475569"/><text x="134.0" y="135.0" id="text5861" style="fill:#ffffff;font-family:Helvetica, Arial, sans-serif;font-size:18px;font-weight:700;text-anchor:middle">note</text><text x="376.0" y="135.0" id="text8137" style="fill:#ffffff;font-family:Helvetica, Arial, sans-serif;font-size:18px;font-weight:700;text-anchor:middle">code</text><text x="618.0" y="135.0" id="text1382" style="fill:#ffffff;font-family:Helvetica, Arial, sans-serif;font-size:18px;font-weight:700;text-anchor:middle">learning</text><text x="860.0" y="135.0" id="text3897" style="fill:#ffffff;font-family:Helvetica, Arial, sans-serif;font-size:18px;font-weight:700;text-anchor:middle">project</text><text x="1102.0" y="135.0" id="text3762" style="fill:#ffffff;font-family:Helvetica, Arial, sans-serif;font-size:18px;font-weight:700;text-anchor:middle">memory</text><text x="134.0" y="176.0" id="text6240" style="fill:#64748b;font-family:Helvetica, Arial, sans-serif;font-size:10.5px;font-style:italic;text-anchor:middle">durable memory &#8212; facts, docs</text><text x="376.0" y="176.0" id="text8067" style="fill:#64748b;font-family:Helvetica, Arial, sans-serif;font-size:10.5px;font-style:italic;text-anchor:middle">concept + name search on code</text><text x="618.0" y="176.0" id="text8754" style="fill:#64748b;font-family:Helvetica, Arial, sans-serif;font-size:10.5px;font-style:italic;text-anchor:middle">durable notes on symbols</text><text x="860.0" y="176.0" id="text1711" style="fill:#64748b;font-family:Helvetica, Arial, sans-serif;font-size:10.5px;font-style:italic;text-anchor:middle">memory namespaces</text><text x="1102.0" y="176.0" id="text310" style="fill:#64748b;font-family:Helvetica, Arial, sans-serif;font-size:10.5px;font-style:italic;text-anchor:middle">the store's git lifecycle</text><text x="134.0" y="208.0" data-line-height="1.55" id="text9724" style="fill:#1e3a8a;font-family:monospace;font-size:11.5px;text-anchor:middle"><tspan x="134.0" dy="0">lookup &#183; apropos</tspan><tspan x="134.0" dy="1.55em">read &#183; locate</tspan><tspan x="134.0" dy="1.55em">store &#183; append &#183; edit</tspan><tspan x="134.0" dy="1.55em">forget &#183; move</tspan><tspan x="134.0" dy="1.55em">reindex &#183; versions &#183; restore</tspan><tspan x="134.0" dy="1.55em">distill &#183; elaborate &#183; summarize</tspan><tspan x="134.0" dy="1.55em">import &#183; import-memory</tspan></text><text x="376.0" y="208.0" data-line-height="1.55" id="text2462" style="fill:#0f766e;font-family:monospace;font-size:11.5px;text-anchor:middle"><tspan x="376.0" dy="0">lookup</tspan><tspan x="376.0" dy="1.55em">xref</tspan><tspan x="376.0" dy="1.55em">dossier</tspan><tspan x="376.0" dy="1.55em">graph</tspan><tspan x="376.0" dy="1.55em">index</tspan></text><text x="618.0" y="208.0" data-line-height="1.55" id="text7293" style="fill:#92400e;font-family:monospace;font-size:11.5px;text-anchor:middle"><tspan x="618.0" dy="0">add &#183; edit</tspan><tspan x="618.0" dy="1.55em">forget &#183; read</tspan><tspan x="618.0" dy="1.55em">reaffirm</tspan><tspan x="618.0" dy="1.55em">report &#183; rehome</tspan></text><text x="860.0" y="208.0" data-line-height="1.55" id="text8800" style="fill:#5b21b6;font-family:monospace;font-size:11.5px;text-anchor:middle"><tspan x="860.0" dy="0">list &#183; use &#183; current</tspan><tspan x="860.0" dy="1.55em">setup &#183; index</tspan><tspan x="860.0" dy="1.55em">status &#183; forget</tspan><tspan x="860.0" dy="1.55em">reconcile</tspan></text><text x="1102.0" y="208.0" data-line-height="1.55" id="text7526" style="fill:#334155;font-family:monospace;font-size:11.5px;text-anchor:middle"><tspan x="1102.0" dy="0">setup</tspan><tspan x="1102.0" dy="1.55em">sync</tspan><tspan x="1102.0" dy="1.55em">push &#183; pull</tspan><tspan x="1102.0" dy="1.55em">snapshot</tspan><tspan x="1102.0" dy="1.55em">history</tspan></text><text x="620.0" y="486.0" id="text8417" style="fill:#64748b;font-family:Helvetica, Arial, sans-serif;font-size:11.5px;text-anchor:middle">five nouns on the CLI and as MCP tools &#8212; full reference in docs/surface.md</text></svg>
